<?xml version="1.0" standalone="no"?>
<!DOCTYPE svg PUBLIC "-//W3C//DTD SVG 20010904//EN"
 "http://www.w3.org/TR/2001/REC-SVG-20010904/DTD/svg10.dtd">
<svg version="1.0" xmlns="http://www.w3.org/2000/svg"
 width="348.000000pt" height="348.000000pt" viewBox="0 0 348.000000 348.000000"
 preserveAspectRatio="xMidYMid meet">

<g transform="translate(0.000000,348.000000) scale(0.100000,-0.100000)"
fill="#000000" stroke="none">
<path d="M2030 3167 c0 -3 15 -59 34 -124 58 -203 79 -352 73 -538 -4 -136 -8
-173 -31 -250 -49 -163 -131 -292 -306 -480 -249 -269 -311 -360 -367 -542
-25 -82 -27 -100 -27 -273 0 -201 10 -267 74 -486 52 -178 47 -174 85 -58 39
118 78 199 150 309 89 138 171 232 445 510 355 361 444 478 512 675 30 89 32
104 32 230 0 112 -4 150 -24 220 -42 153 -46 156 -53 43 -11 -201 -97 -379
-271 -562 -34 -35 -150 -144 -258 -242 -324 -294 -437 -439 -515 -659 -28 -80
-29 -53 -3 60 26 110 120 299 204 410 74 97 131 162 340 386 301 322 386 479
373 685 -12 194 -141 399 -391 622 -42 38 -76 67 -76 64z"/>
<path d="M1425 1913 c-326 -3 -358 -7 -370 -42 -4 -12 -20 -16 -73 -17 -82 -2
-136 -26 -181 -81 -17 -21 -31 -40 -31 -44 0 -3 27 -9 61 -12 82 -7 162 -48
229 -117 99 -101 163 -238 217 -460 23 -96 28 -108 30 -75 11 172 47 314 113
450 70 143 179 277 304 373 16 12 27 23 25 25 -2 1 -148 1 -324 0z"/>
</g>
</svg>
